<!DOCTYPE svg PUBLIC "-//W3C//DTD SVG 1.1//EN" "http://www.w3.org/Graphics/SVG/1.1/DTD/svg11.dtd">
<!-- Uploaded to: SVG Repo, www.svgrepo.com, Transformed by: SVG Repo Mixer Tools -->
<svg width="800px" height="800px" viewBox="0 0 512 512" xmlns="http://www.w3.org/2000/svg" xmlns:xlink="http://www.w3.org/1999/xlink" aria-hidden="true" role="img" class="iconify iconify--fxemoji" preserveAspectRatio="xMidYMid meet" fill="#c3b497" stroke="#c3b497">
<g id="SVGRepo_bgCarrier" stroke-width="0"/>
<g id="SVGRepo_tracerCarrier" stroke-linecap="round" stroke-linejoin="round"/>
<g id="SVGRepo_iconCarrier">
<path fill="#c3b497" d="M330.443 256l136.765-136.765c14.058-14.058 14.058-36.85 0-50.908l-23.535-23.535c-14.058-14.058-36.85-14.058-50.908 0L256 181.557L119.235 44.792c-14.058-14.058-36.85-14.058-50.908 0L44.792 68.327c-14.058 14.058-14.058 36.85 0 50.908L181.557 256L44.792 392.765c-14.058 14.058-14.058 36.85 0 50.908l23.535 23.535c14.058 14.058 36.85 14.058 50.908 0L256 330.443l136.765 136.765c14.058 14.058 36.85 14.058 50.908 0l23.535-23.535c14.058-14.058 14.058-36.85 0-50.908L330.443 256z"/>
</g>
</svg>