<?xml version="1.0" encoding="utf-8"?><!-- Uploaded to: SVG Repo, www.svgrepo.com, Generator: SVG Repo Mixer Tools -->
<svg fill="#000000" width="800px" height="800px" viewBox="0 0 24 24" id="strikethrough-2" data-name="Flat Color" xmlns="http://www.w3.org/2000/svg" class="icon flat-color"><path id="primary" d="M20,2H4A1,1,0,0,0,3,3V5A1,1,0,0,0,5,5V4H9V20H8a1,1,0,0,0,0,2h8a1,1,0,0,0,0-2H15V4h4V5a1,1,0,0,0,2,0V3A1,1,0,0,0,20,2ZM13,20H11V4h2Z" style="fill: rgb(0, 0, 0);"></path><path id="secondary" d="M21,13H3a1,1,0,0,1,0-2H21a1,1,0,0,1,0,2Z" style="fill: rgb(44, 169, 188);"></path></svg>